<svg class="svg-icon" style="width: 1em; height: 1em;vertical-align: middle;fill: currentColor;overflow: hidden;" viewBox="0 0 1024 1024" version="1.1" xmlns="http://www.w3.org/2000/svg"><path d="M884.078 121.448c-56.16 0-101.848 45.69-101.848 101.85s45.688 101.85 101.848 101.85 101.852-45.69 101.852-101.85c0-56.162-45.692-101.85-101.852-101.85z" fill="#FFD452" /><path d="M756.784 186.004H278.754v53.374h473.712a125.09 125.09 0 0 1-1.02-16.062c0-12.954 1.844-25.472 5.338-37.312z" fill="#DFDFDF" /><path d="M265.798 655.786a8.404 8.404 0 0 1-0.388-8.344l42.99-86.124h454.692l93.986-208.156a130.752 130.752 0 0 1-48.958-21.204l-79.478 175.986H303.354L181.08 186.004H33.964c-14.702 0-26.686 11.936-26.686 26.686 0 7.326 3.008 14.02 7.812 18.874 4.852 4.804 11.548 7.814 18.874 7.814h110.288L258.86 541.08l-41.194 82.536c-10.14 20.33-8.492 44.202 4.61 63.078 11.84 17.08 31.928 26.542 52.742 26.542h537.274v-53.374H273.124c-3.056 0-5.724-1.456-7.326-4.076z" fill="#DFDFDF" /><path d="M766.52 178.726H271.474v67.93h489.28l-1.07-8.218a117.49 117.49 0 0 1-0.958-15.12c0-12.06 1.696-23.92 5.036-35.254l2.758-9.338z m-22.066 53.374H286.03V193.282h461.376a139.82 139.82 0 0 0-2.952 38.818z" fill="#4A555F" /><path d="M271.974 651.938a1.148 1.148 0 0 1-0.052-1.246l40.98-82.098h454.888l99.662-220.726-8.908-1.836a122.844 122.844 0 0 1-46.232-20.024l-7.202-5.072-81.168 179.73H308.374L186.1 178.726H33.964C15.236 178.726 0 193.962 0 212.69c0 9.016 3.522 17.534 9.968 24.046 6.46 6.396 14.982 9.92 23.998 9.92h105.268l111.688 294.03-39.77 79.684c-11.29 22.636-9.318 49.64 5.142 70.472 12.882 18.582 34.832 29.674 58.722 29.674h544.556v-67.93H273.126c-0.628-0.002-0.894-0.23-1.152-0.648z m533.042 54.02h-530c-19.116 0-36.596-8.752-46.76-23.416-11.604-16.716-13.128-37.53-4.078-55.676l42.618-85.39L149.274 232.1H33.964a19.404 19.404 0 0 1-13.704-5.658c-3.68-3.714-5.704-8.598-5.704-13.75 0-10.702 8.706-19.408 19.408-19.408H176.06l122.274 321.938h435.008l77.9-172.494a136.888 136.888 0 0 0 35.58 15.454l-88.432 195.856H303.9l-45 90.15c-2.48 4.966-2.21 10.74 0.69 15.394 2.892 4.734 7.954 7.56 13.538 7.56h531.89v38.816z" fill="#4A555F" /><path d="M273.604 808.79c-16.802 0-30.472 13.692-30.472 30.52 0 16.802 13.67 30.47 30.472 30.47 16.826 0 30.516-13.668 30.516-30.47 0-16.828-13.69-30.52-30.516-30.52z" fill="#FFD452" /><path d="M273.602 745.276c-51.918 0-94.034 42.118-94.034 94.034 0 51.918 42.116 94.034 94.034 94.034 51.966 0 94.034-42.114 94.034-94.034 0-51.916-42.068-94.034-94.034-94.034z m0 148.766c-30.228 0-54.732-24.502-54.732-54.73 0-30.228 24.504-54.78 54.732-54.78 30.278 0 54.78 24.552 54.78 54.78 0 30.226-24.502 54.73-54.78 54.73z" fill="#F58E6F" /><path d="M756.598 808.79c-16.802 0-30.472 13.692-30.472 30.52 0 16.802 13.67 30.47 30.472 30.47 16.832 0 30.52-13.668 30.52-30.47 0-16.828-13.688-30.52-30.52-30.52z" fill="#FFD452" /><path d="M756.598 745.276c-51.916 0-94.034 42.118-94.034 94.034 0 51.918 42.116 94.034 94.034 94.034 51.966 0 94.034-42.114 94.034-94.034 0-51.916-42.068-94.034-94.034-94.034z m0 148.766c-30.228 0-54.732-24.502-54.732-54.73 0-30.228 24.504-54.78 54.732-54.78 30.278 0 54.78 24.552 54.78 54.78 0 30.226-24.502 54.73-54.78 54.73z" fill="#F58E6F" /><path d="M273.602 738c-55.864 0-101.312 45.448-101.312 101.312s45.448 101.312 101.312 101.312 101.312-45.448 101.312-101.312S329.466 738 273.602 738z m0 188.066c-47.836 0-86.756-38.918-86.756-86.754s38.918-86.756 86.756-86.756 86.756 38.918 86.756 86.756-38.92 86.754-86.756 86.754z" fill="#4A555F" /><path d="M273.602 777.252c-34.192 0-62.01 27.84-62.01 62.058 0 34.192 27.816 62.008 62.01 62.008 34.218 0 62.058-27.816 62.058-62.008 0-34.218-27.84-62.058-62.058-62.058z m0 109.512c-26.166 0-47.452-21.288-47.452-47.452 0-26.194 21.288-47.502 47.452-47.502 26.194 0 47.502 21.308 47.502 47.502 0 26.164-21.308 47.452-47.502 47.452zM756.598 738c-55.866 0-101.312 45.448-101.312 101.312s45.446 101.312 101.312 101.312 101.312-45.448 101.312-101.312S812.464 738 756.598 738z m0 188.066c-47.838 0-86.756-38.918-86.756-86.754s38.916-86.756 86.756-86.756 86.756 38.918 86.756 86.756-38.916 86.754-86.756 86.754z" fill="#4A555F" /><path d="M756.598 777.252c-34.192 0-62.012 27.84-62.012 62.058 0 34.192 27.82 62.008 62.012 62.008 34.22 0 62.058-27.816 62.058-62.008 0-34.218-27.838-62.058-62.058-62.058z m0 109.512c-26.166 0-47.456-21.288-47.456-47.452 0-26.194 21.29-47.502 47.456-47.502 26.194 0 47.502 21.308 47.502 47.502 0 26.164-21.308 47.452-47.502 47.452zM235.69 322.504h573.386v14.556H235.69zM273.602 410.984h495.516v14.556H273.602z" fill="#4A555F" /><path d="M514.082 239.362h14.556v268.582h-14.556zM614.94 506.24l65.404-268.576 14.138 3.442-65.402 268.578zM337.562 241.1l14.144-3.446 65.404 268.58-14.144 3.442zM884.08 83.378c-77.15 0-139.916 62.768-139.916 139.918s62.764 139.918 139.916 139.918c77.15 0 139.92-62.768 139.92-139.918s-62.77-139.918-139.92-139.918z m0 265.278c-69.124 0-125.358-56.238-125.358-125.362s56.236-125.36 125.358-125.36c69.124 0 125.364 56.238 125.364 125.36 0 69.126-56.24 125.362-125.364 125.362z" fill="#4A555F" /><path d="M822.314 151.734l-9.524-11.008a109.996 109.996 0 0 0-11.026 10.99l10.984 9.552a95.88 95.88 0 0 1 9.566-9.534zM793.364 196.54l-13.958-4.122a109.442 109.442 0 0 0-3.326 15.224l14.404 2.08a94.64 94.64 0 0 1 2.88-13.182z m11.254-24.476l-12.226-7.904a109.602 109.602 0 0 0-7.506 13.656l13.22 6.084a95.29 95.29 0 0 1 6.512-11.836z m-15.106 51.118l-14.556 0.116c0 5.156 0.364 10.342 1.086 15.412l14.414-2.046a95.286 95.286 0 0 1-0.944-13.482z m140.156-99.022a107.8 107.8 0 0 0-14.594-5.506l-4.142 13.954c4.312 1.28 8.558 2.88 12.624 4.762l6.112-13.21z m48.986 99.474l14.556-0.336c0-5.072-0.356-10.18-1.056-15.18l-14.414 2.018c0.606 4.334 0.914 8.762 0.914 13.498z m-3.734-26.688l13.978-4.066a108.914 108.914 0 0 0-5.416-14.614l-13.248 6.022a94.634 94.634 0 0 1 4.686 12.658z m-11.14-24.502l12.254-7.862a111.314 111.314 0 0 0-9.302-12.474l-11.032 9.5a96.004 96.004 0 0 1 8.08 10.836z m-8.028-31.382a110.32 110.32 0 0 0-12.434-9.382l-7.922 12.21a95.2 95.2 0 0 1 10.784 8.14l9.572-10.968z m-163.498 141.144a110.23 110.23 0 0 0 9.334 12.462l11.002-9.528a95.918 95.918 0 0 1-8.094-10.808l-12.242 7.874z m1.052-32.356l-13.968 4.094a109.02 109.02 0 0 0 5.444 14.604l13.24-6.056a93.48 93.48 0 0 1-4.716-12.642z m152.382 45.142l9.496 11.032a110.01 110.01 0 0 0 11.05-10.968l-10.956-9.582a96.164 96.164 0 0 1-9.59 9.518z m-22.692 14.492l6.008 13.258a108.9 108.9 0 0 0 13.684-7.426l-7.838-12.266a93.822 93.822 0 0 1-11.854 6.434z m51.744-59.236l13.95 4.16a108.26 108.26 0 0 0 3.364-15.222l-14.404-2.108a93.648 93.648 0 0 1-2.91 13.17z m-77.6 66.718l2 14.418a108.926 108.926 0 0 0 15.248-3.244l-4.046-13.982a93.816 93.816 0 0 1-13.202 2.808z m66.294-42.266l12.206 7.932a109.432 109.432 0 0 0 7.538-13.64l-13.21-6.112a95.454 95.454 0 0 1-6.534 11.82z m-124.724 47.84a109.028 109.028 0 0 0 14.608 5.47l4.112-13.964a94.068 94.068 0 0 1-12.646-4.736l-6.074 13.23z m0.242-198.594a108.442 108.442 0 0 0-13.68 7.458l7.866 12.25a94.422 94.422 0 0 1 11.842-6.458l-6.028-13.25z m-26.356 181.738a110.14 110.14 0 0 0 12.452 9.358l7.894-12.23a95.432 95.432 0 0 1-10.794-8.112l-9.552 10.984z m55.952 25.638c5.108 0.732 10.334 1.102 15.532 1.102v-14.556a95.54 95.54 0 0 1-13.466-0.954l-2.066 14.408z m0.242-216.084c-5.136 0.72-10.264 1.824-15.238 3.276l4.074 13.974a94 94 0 0 1 13.192-2.836l-2.028-14.414z m31.064 0.068a110.286 110.286 0 0 0-15.528-1.138l-0.038 14.556c4.506 0.012 9.04 0.344 13.472 0.986l2.094-14.404zM940.808 183.72l-76.074 65.648-31.64-36.298-10.974 9.562 41.154 47.22 87.044-75.11z" fill="#4A555F" /></svg>